<svg xmlns="http://www.w3.org/2000/svg" viewBox="0 0 32 32" fill="none">
  <defs>
    <linearGradient id="arc" x1="0%" y1="100%" x2="100%" y2="0%">
      <stop offset="0%" style="stop-color:#1e3a8a"/>
      <stop offset="100%" style="stop-color:#3b82f6"/>
    </linearGradient>
  </defs>
  <!-- A left leg -->
  <path d="M8 28 L14.5 4 L17.5 4 L11 28 Z" fill="#0f172a"/>
  <!-- A right leg -->
  <path d="M21 28 L14.5 4 L17.5 4 L24 28 Z" fill="#0f172a"/>
  <!-- Crossbar -->
  <path d="M11.5 20 L20.5 20 L20 22 L12 22 Z" fill="#0f172a"/>
  <!-- Blue arc -->
  <path d="M17.5 4 C 24 4, 27 7, 27 12 C 27 17, 24 20, 20 20 L18.5 20 C 22 19.5, 25 17, 25 12 C 25 8, 22 5.5, 17.5 5.5 Z" fill="url(#arc)"/>
  <!-- Sparkle -->
  <path d="M16 16 L16.3 15 L16.6 16 L17.6 16.3 L16.6 16.6 L16.3 17.3 L16 16.6 L15 16.3 Z" fill="#1e3a8a"/>
</svg>
